<?xml version="1.0" encoding="utf-8"?>
<!-- Generator: Adobe Illustrator 18.1.1, SVG Export Plug-In . SVG Version: 6.00 Build 0)  -->
<svg version="1.1" id="Layer_1" xmlns="http://www.w3.org/2000/svg" xmlns:xlink="http://www.w3.org/1999/xlink" x="0px" y="0px"
	 viewBox="0 0 29.3 21.7" enable-background="new 0 0 29.3 21.7" xml:space="preserve">
<path d="M25.4,20L4,12.2c-0.7-0.3-1.2-0.9-1.3-1.7l0,0c0,0-0.2-1.7-0.8-5.9C1.8,3.7,2.6,3.6,3,4.3C3.8,5.4,4.9,7,5.9,8.5l4.4,1.6
	C10,7.6,9.5,4,9.2,1.6l1.9,0.7c1.9,3.5,4,7.4,5.5,10.2l6.7,2.4c3.7,1.4,4.9,3.4,4.5,4.4C27.5,20.3,26.6,20.4,25.4,20z"/>
</svg>
