<?xml version="1.0" encoding="utf-8"?>
<!-- Generator: Adobe Illustrator 18.1.1, SVG Export Plug-In . SVG Version: 6.00 Build 0)  -->
<svg version="1.1" id="Layer_1" xmlns="http://www.w3.org/2000/svg" xmlns:xlink="http://www.w3.org/1999/xlink" x="0px" y="0px"
	 viewBox="0 0 600 600" enable-background="new 0 0 600 600" xml:space="preserve">
<rect y="49.4" fill="#8559A4" width="600" height="501.2"/>
<g>
	<path fill="#FFFFFF" d="M112.6,180.6V264h-10.6v-83.3H86.3v-9.8h42.1v9.8H112.6z"/>
	<path fill="#FFFFFF" d="M169.7,264l-13.2-40.8h-10V264h-10.6v-93.1h20.4c7.6,0,13.1,2.2,16.7,6.6c3.6,4.4,5.3,11,5.3,19.9
		c0,5.4-0.8,10.1-2.4,14.2c-1.6,4.1-4.8,7.3-9.6,9.5l14.1,42.9H169.7z M167.8,197.4c0-2.5-0.2-4.8-0.5-6.8c-0.4-2.1-1-3.8-2.1-5.3
		c-1-1.5-2.4-2.6-4.1-3.4c-1.7-0.8-3.9-1.2-6.6-1.2h-8v32.8h9c2.4,0,4.4-0.4,6-1.1c1.6-0.8,2.9-1.8,3.8-3.3c0.9-1.4,1.6-3.1,1.9-5.1
		C167.6,201.9,167.8,199.8,167.8,197.4z"/>
	<path fill="#FFFFFF" d="M191.7,264v-93.1h10.6V264H191.7z"/>
	<path fill="#FFFFFF" d="M236,170.9c4.7,0,8.6,0.6,11.6,1.9c3,1.2,5.4,3.1,7.2,5.4c1.8,2.4,3,5.3,3.7,8.7c0.7,3.4,1,7.3,1,11.7
		c0,3.9-0.3,7.6-0.9,11c-0.6,3.4-1.8,6.4-3.6,8.9c-1.8,2.5-4.3,4.5-7.4,6c-3.2,1.4-7.3,2.1-12.4,2.1h-7.6V264H217v-93.1H236z
		 M227.5,216.8h7.2c3.2,0,5.8-0.5,7.7-1.5c1.9-1,3.4-2.3,4.4-3.9c1-1.6,1.7-3.5,1.9-5.6c0.3-2.1,0.4-4.4,0.4-6.8
		c0-2.5-0.2-4.9-0.5-7.1c-0.3-2.2-1-4.2-1.9-5.8c-1-1.7-2.4-3-4.3-3.9c-1.9-0.9-4.4-1.4-7.5-1.4h-7.5V216.8z"/>
	<path fill="#FFFFFF" d="M337.1,238.6c0,4-0.4,7.6-1.1,10.8c-0.8,3.2-2,6-3.8,8.3c-1.7,2.3-4,4.1-6.8,5.4c-2.8,1.2-6.2,1.9-10.3,1.9
		c-3.8,0-7-0.5-9.8-1.6c-2.8-1.1-5.1-2.6-6.8-4.5c-1.8-1.9-3.1-4.2-4-6.8c-0.9-2.6-1.3-5.4-1.3-8.4l10.6-2.1c0,1.8,0.2,3.5,0.5,5
		c0.4,1.6,1,3,1.8,4.2c0.8,1.3,2,2.2,3.5,2.9c1.5,0.7,3.3,1.1,5.4,1.1c2.7,0,4.8-0.4,6.4-1.3c1.6-0.8,2.7-2,3.5-3.5
		c0.8-1.5,1.2-3.2,1.4-5.2c0.2-2,0.3-4,0.3-6.2c0-2.8-0.1-5-0.4-6.8s-0.8-3.3-1.7-4.5c-0.9-1.3-2.2-2.4-3.8-3.4
		c-1.7-1-3.9-2-6.6-3.2c-4.4-1.9-7.9-3.8-10.5-5.7c-2.6-1.9-4.7-3.9-6.1-6c-1.4-2.1-2.4-4.3-2.8-6.7c-0.4-2.4-0.7-5-0.7-7.8
		c0-3.6,0.4-6.8,1.3-9.8c0.9-3,2.3-5.6,4.1-7.8c1.8-2.2,4.1-3.9,6.9-5.1c2.8-1.2,6-1.8,9.7-1.8c4,0,7.4,0.6,10.1,1.9
		c2.7,1.2,4.9,2.9,6.6,4.9c1.7,2,2.8,4.2,3.5,6.6c0.7,2.4,1,4.8,1,7.1l-10.6,2.7c0-4.2-0.8-7.4-2.5-9.7c-1.7-2.3-4.6-3.4-8.7-3.4
		c-2.3,0-4.2,0.4-5.6,1.3c-1.4,0.9-2.5,2-3.3,3.4c-0.8,1.4-1.3,2.9-1.6,4.6c-0.3,1.7-0.4,3.3-0.4,5c0,2,0.1,3.7,0.3,5.2
		s0.8,2.9,1.8,4.1c1,1.3,2.4,2.6,4.4,3.8c1.9,1.2,4.6,2.5,8.1,3.9c4,1.6,7.2,3.3,9.6,5c2.4,1.7,4.2,3.7,5.4,5.8
		c1.3,2.1,2.1,4.5,2.4,7.2C336.9,232.1,337.1,235.2,337.1,238.6z"/>
	<path fill="#FFFFFF" d="M367,209.4l12.1-38.5h11.1L372,224.6v39.5h-10.6v-39.5l-18.2-53.8h11.1l6.8,21.8l5.3,16.7H367z"/>
	<path fill="#FFFFFF" d="M409.1,200.3V264h-10.6v-93.1h10l19.3,47.2l6.4,17l0.5-0.1v-64.1h10.6V264h-9.9l-19.3-46.8l-6.7-16.9H409.1
		z"/>
	<path fill="#FFFFFF" d="M479.3,170.1c7.2,0,12.5,2,15.7,5.9c3.3,3.9,4.9,9.1,4.9,15.4l-10.6,1.9c0.1-4.1-0.6-7.4-2.2-9.8
		c-1.6-2.4-4.2-3.6-8-3.6c-2.1,0-3.9,0.5-5.2,1.5c-1.3,1-2.4,2.2-3.1,3.7c-0.8,1.5-1.3,3.1-1.5,4.9c-0.3,1.8-0.4,3.5-0.4,5.1v47
		c0,1.3,0.1,2.8,0.4,4.3c0.3,1.6,0.8,3,1.5,4.3c0.8,1.3,1.8,2.4,3.1,3.3c1.3,0.9,3,1.3,5.2,1.3c3.5,0,6-1.1,7.7-3.2
		c1.6-2.1,2.5-5.5,2.6-10.2l10.8,1.9c-0.2,6.7-2,11.9-5.4,15.7c-3.4,3.7-8.6,5.6-15.5,5.6c-7,0-12.3-2-15.8-5.9
		c-3.5-3.9-5.2-9.5-5.2-16.6v-46c0-3.3,0.3-6.5,0.9-9.7c0.6-3.2,1.6-6,3.1-8.4c1.5-2.5,3.7-4.4,6.4-6
		C471.5,170.8,475,170.1,479.3,170.1z"/>
</g>
<path fill="#673090" d="M117.7,417.2v133.4H0V394.9l110.1,16.4C111,414.9,114.2,417.2,117.7,417.2z"/>
<path fill="#703E98" d="M240.2,361.8v188.8H117.7V417.2c4.4,0,7.9-3.5,7.9-7.9c0-1.4-0.4-2.6-0.9-3.7l114.9-43.9L240.2,361.8z"/>
<path fill="#673090" d="M124.8,405.7c0.5,1.1,0.9,2.3,0.9,3.7c0,4.4-3.5,7.9-7.9,7.9c-3.7,0-6.7-2.5-7.6-5.8l9.7-2.6L124.8,405.7z"
	/>
<polygon fill="#673090" points="359.3,407.6 359.3,550.6 240.2,550.6 240.2,361.8 351.7,405.2 "/>
<polygon fill="#703E98" points="481.8,362.6 481.8,550.6 359.3,550.6 359.3,407.6 359.6,407.8 366.9,405.2 479.5,362.3 "/>
<polygon fill="#673090" points="600,381.5 600,550.6 481.8,550.6 481.8,362.6 599.3,381.5 "/>
<line fill="none" stroke="#FFFFFF" stroke-width="2" stroke-miterlimit="10" x1="240.2" y1="361.8" x2="240.2" y2="360.7"/>
<line fill="none" stroke="#FFFFFF" stroke-width="2.0339" stroke-miterlimit="10" x1="359.3" y1="407.6" x2="359.3" y2="403.8"/>
<line fill="none" stroke="#FFFFFF" stroke-width="2.0461" stroke-miterlimit="10" x1="481.8" y1="362.6" x2="481.8" y2="362.3"/>
<g>
	<g opacity="0.8">
		<line fill="none" stroke="#B594C5" stroke-width="2" stroke-miterlimit="10" x1="0" y1="384.5" x2="5.3" y2="384.5"/>
		
			<line fill="none" stroke="#B594C5" stroke-width="2" stroke-miterlimit="10" stroke-dasharray="5.9643,11.9286" x1="26.3" y1="384.5" x2="584.1" y2="384.5"/>
		<line fill="none" stroke="#B594C5" stroke-width="2" stroke-miterlimit="10" x1="594.7" y1="384.5" x2="600" y2="384.5"/>
	</g>
</g>
<ellipse fill="#B594C5" cx="240.2" cy="362.3" rx="7.9" ry="7.9"/>
<path fill="#B594C5" d="M125.6,409.4c0,4.4-3.5,7.9-7.9,7.9c-3.7,0-6.7-2.5-7.6-5.8c-0.2-0.7-0.4-1.4-0.4-2.1c0-4.4,3.5-7.9,7.9-7.9
	c3,0,5.6,1.8,7.1,4.2C125.5,406.8,125.6,408,125.6,409.4z"/>
<ellipse fill="#B594C5" cx="359.3" cy="407.5" rx="7.9" ry="7.9"/>
<ellipse fill="#B594C5" cx="481.8" cy="363.2" rx="7.9" ry="7.9"/>
</svg>
