<?xml version="1.0" encoding="utf-8"?>
<!-- Generator: Adobe Illustrator 16.0.0, SVG Export Plug-In . SVG Version: 6.00 Build 0)  -->
<!DOCTYPE svg PUBLIC "-//W3C//DTD SVG 1.1//EN" "http://www.w3.org/Graphics/SVG/1.1/DTD/svg11.dtd">
<svg version="1.1" id="Layer_1" xmlns="http://www.w3.org/2000/svg" xmlns:xlink="http://www.w3.org/1999/xlink" x="0px" y="0px"
	 width="340px" height="115px" viewBox="0 0 340 115" enable-background="new 0 0 340 115" xml:space="preserve">
<path fill="#67308F" d="M67.402,37.975v75.309H1.164V25.39l61.927,9.306C63.61,36.587,65.345,37.975,67.402,37.975"/>
<path fill="#703E97" d="M136.242,6.613v106.671h-68.84v-75.31c2.469,0,4.469-2,4.469-4.469c0-0.762-0.189-1.48-0.528-2.106
	l64.649-24.868L136.242,6.613z"/>
<polygon fill="#67308F" points="203.203,32.55 203.203,113.284 136.243,113.284 136.243,6.613 198.923,31.15 "/>
<polygon fill="#703E97" points="272.047,7.117 272.047,113.284 203.203,113.284 203.203,32.55 203.408,32.618 207.479,31.118 
	270.82,6.935 "/>
<polygon fill="#67308F" points="338.588,17.778 338.588,113.284 272.047,113.284 272.047,7.117 338.232,17.826 "/>
<g opacity="0.8">
	<g>
		<defs>
			<rect id="SVGID_1_" x="1.164" y="18.527" width="337.424" height="2"/>
		</defs>
		<clipPath id="SVGID_2_">
			<use xlink:href="#SVGID_1_"  overflow="visible"/>
		</clipPath>
		
			<line clip-path="url(#SVGID_2_)" fill="none" stroke="#B493C4" stroke-width="2" stroke-miterlimit="10" x1="1.164" y1="19.527" x2="4.164" y2="19.527"/>
		
			<line clip-path="url(#SVGID_2_)" fill="none" stroke="#B493C4" stroke-width="2" stroke-miterlimit="10" stroke-dasharray="5.918,11.837" x1="16" y1="19.527" x2="329.67" y2="19.527"/>
		
			<line clip-path="url(#SVGID_2_)" fill="none" stroke="#B493C4" stroke-width="2" stroke-miterlimit="10" x1="335.588" y1="19.527" x2="338.588" y2="19.527"/>
	</g>
</g>
<path fill="#B493C4" d="M140.714,6.883c0,2.469-2.002,4.471-4.471,4.471c-2.469,0-4.47-2.002-4.47-4.471s2.001-4.471,4.47-4.471
	C138.712,2.412,140.714,4.414,140.714,6.883"/>
<path fill="#B493C4" d="M71.872,33.506c0,2.469-2.001,4.469-4.469,4.469c-2.057,0-3.792-1.387-4.312-3.279
	c-0.105-0.379-0.162-0.779-0.162-1.19c0-2.469,2.005-4.469,4.474-4.469c1.706,0,3.19,0.956,3.941,2.363
	C71.683,32.026,71.872,32.744,71.872,33.506"/>
<path fill="#B493C4" d="M207.675,32.431c0,2.469-2.002,4.471-4.472,4.471c-2.469,0-4.469-2.002-4.469-4.471
	c0-2.469,2-4.471,4.469-4.471C205.673,27.959,207.675,29.961,207.675,32.431"/>
<path fill="#B493C4" d="M276.518,7.473c0,2.469-2.002,4.471-4.471,4.471s-4.471-2.002-4.471-4.471c0-2.469,2.002-4.471,4.471-4.471
	S276.518,5.004,276.518,7.473"/>
</svg>
