<?xml version="1.0" encoding="utf-8"?>
<!-- Generator: Adobe Illustrator 18.1.1, SVG Export Plug-In . SVG Version: 6.00 Build 0)  -->
<svg version="1.1" id="Layer_1" xmlns="http://www.w3.org/2000/svg" xmlns:xlink="http://www.w3.org/1999/xlink" x="0px" y="0px"
	 viewBox="0 0 351.7 48.2" enable-background="new 0 0 351.7 48.2" xml:space="preserve">
<rect x="77.5" y="12.7" fill="none" width="308.5" height="22.5"/>
<text transform="matrix(1 0 0 1 77.4751 34.2713)"><tspan x="0" y="0" fill="#FFFFFF" font-family="'Helvetica-Light'" font-size="30">FLIGHT</tspan><tspan x="103.4" y="0" fill="#FFFFFF" font-family="'Helvetica-Bold'" font-size="30">DEALS.com</tspan></text>
<path fill="#89D4E6" d="M46.1,10.6l-20.2-9c-0.8-0.5-1.8-0.5-2.7,0l-20.2,9C2.2,11.1,1.7,12,1.7,13v21.9c0,1,1.1,1.8,1.9,2.2
	l6.9,3.1c0.4,0,2.2,0.1,7.9-9.4l-3.8-0.6l0.6-1.1l3.3-0.5L29,10.2c0,0,0.7-1.7,2.5-0.7c1.4,0.8,0.6,2.3,0.6,2.3L28.6,18l4.8,11.9
	l-1.2,2.1L25,24.2l-3.4,6l1.4,3.3l-0.5,0.9l-2.6-2.9c-3.2,5.7-5.5,9.8-4.3,10.9l7.8,3.4c0.8,0.5,1.8,0.5,2.7,0l20.2-8.6
	c0.9-0.5,1.4-1.4,1.4-2.3V13C47.5,12,46.9,11.1,46.1,10.6z M20.6,22.3l-9-1.7l1-1.8l11-1.8L20.6,22.3z"/>
</svg>
