<?xml version="1.0" encoding="utf-8"?>
<!-- Generator: Adobe Illustrator 18.1.1, SVG Export Plug-In . SVG Version: 6.00 Build 0)  -->
<svg version="1.1" id="Layer_1" xmlns="http://www.w3.org/2000/svg" xmlns:xlink="http://www.w3.org/1999/xlink" x="0px" y="0px"
	 viewBox="0 0 32 16" enable-background="new 0 0 32 16" xml:space="preserve">
<path d="M29,4.6L8.5,14.1c-0.7,0.3-1.5,0.2-2.1-0.2l0,0c0,0-1.3-1-4.7-3.6C1.1,9.8,1.5,9.1,2.3,9.3c1.4,0.3,3.3,0.6,5,1l4.2-2
	C9.5,6.7,6.7,4.5,4.7,3.1l1.8-0.9c3.8,1.1,7.9,2.4,10.9,3.3l6.4-3c3.5-1.7,5.8-1.1,6.3-0.1C30.6,3.3,30.1,4.1,29,4.6z"/>
</svg>
