<?xml version="1.0" encoding="utf-8"?>
<!-- Generator: Adobe Illustrator 18.1.1, SVG Export Plug-In . SVG Version: 6.00 Build 0)  -->
<svg version="1.1" id="Layer_1" xmlns="http://www.w3.org/2000/svg" xmlns:xlink="http://www.w3.org/1999/xlink" x="0px" y="0px"
	 viewBox="0 0 340 284" enable-background="new 0 0 340 284" xml:space="preserve">
<rect fill="#8659A5" width="340" height="284"/>
<path fill="#673090" d="M66.7,208.4V284H0v-88.2l62.4,9.3C62.9,207.1,64.7,208.4,66.7,208.4z"/>
<path fill="#703E98" d="M136.1,177v107H66.7v-75.6c2.5,0,4.5-2,4.5-4.5c0-0.8-0.2-1.5-0.5-2.1l65.1-24.9L136.1,177z"/>
<path fill="#673090" d="M70.7,201.9c0.3,0.6,0.5,1.3,0.5,2.1c0,2.5-2,4.5-4.5,4.5c-2.1,0-3.8-1.4-4.3-3.3l5.5-1.5L70.7,201.9z"/>
<polygon fill="#673090" points="203.6,203 203.6,284 136.1,284 136.1,177 199.3,201.6 "/>
<polygon fill="#703E98" points="273,177.5 273,284 203.6,284 203.6,203 203.8,203.1 207.9,201.6 271.7,177.3 "/>
<polygon fill="#673090" points="340,188.2 340,284 273,284 273,177.5 339.6,188.2 "/>
<line fill="none" stroke="#FFFFFF" stroke-width="2" stroke-miterlimit="10" x1="136.1" y1="177" x2="136.1" y2="176.4"/>
<line fill="none" stroke="#FFFFFF" stroke-width="2.0339" stroke-miterlimit="10" x1="203.6" y1="203" x2="203.6" y2="200.8"/>
<line fill="none" stroke="#FFFFFF" stroke-width="2.0461" stroke-miterlimit="10" x1="273" y1="177.5" x2="273" y2="177.3"/>
<g>
	<g opacity="0.8">
		<line fill="none" stroke="#B594C5" stroke-width="2" stroke-miterlimit="10" x1="0" y1="189.9" x2="3" y2="189.9"/>
		
			<line fill="none" stroke="#B594C5" stroke-width="2" stroke-miterlimit="10" stroke-dasharray="5.9643,11.9286" x1="14.9" y1="189.9" x2="331" y2="189.9"/>
		<line fill="none" stroke="#B594C5" stroke-width="2" stroke-miterlimit="10" x1="337" y1="189.9" x2="340" y2="189.9"/>
	</g>
</g>
<ellipse fill="#B594C5" cx="136.1" cy="177.3" rx="4.5" ry="4.5"/>
<path fill="#B594C5" d="M71.2,204c0,2.5-2,4.5-4.5,4.5c-2.1,0-3.8-1.4-4.3-3.3c-0.1-0.4-0.2-0.8-0.2-1.2c0-2.5,2-4.5,4.5-4.5
	c1.7,0,3.2,1,4,2.4C71.1,202.5,71.2,203.2,71.2,204z"/>
<ellipse fill="#B594C5" cx="203.6" cy="202.9" rx="4.5" ry="4.5"/>
<ellipse fill="#B594C5" cx="273" cy="177.8" rx="4.5" ry="4.5"/>
<g enable-background="new    ">
	<path fill="#FFFFFF" d="M44.8,122.1c0,1.7-0.2,3.3-0.5,4.7c-0.3,1.4-0.9,2.6-1.6,3.6c-0.8,1-1.7,1.8-2.9,2.3
		c-1.2,0.5-2.7,0.8-4.5,0.8c-1.6,0-3-0.2-4.2-0.7c-1.2-0.5-2.2-1.1-3-1.9c-0.8-0.8-1.3-1.8-1.7-2.9c-0.4-1.1-0.6-2.3-0.6-3.6
		l4.6-0.9c0,0.8,0.1,1.5,0.2,2.2c0.2,0.7,0.4,1.3,0.8,1.8c0.4,0.5,0.9,1,1.5,1.3c0.6,0.3,1.4,0.5,2.3,0.5c1.2,0,2.1-0.2,2.8-0.5
		c0.7-0.4,1.2-0.9,1.5-1.5c0.3-0.6,0.5-1.4,0.6-2.2c0.1-0.8,0.1-1.7,0.1-2.7c0-1.2-0.1-2.2-0.2-2.9s-0.4-1.4-0.8-2
		c-0.4-0.6-0.9-1.1-1.7-1.5c-0.7-0.4-1.7-0.9-2.9-1.4c-1.9-0.8-3.4-1.6-4.5-2.5c-1.1-0.8-2-1.7-2.6-2.6c-0.6-0.9-1-1.9-1.2-2.9
		c-0.2-1-0.3-2.2-0.3-3.4c0-1.5,0.2-3,0.6-4.3c0.4-1.3,1-2.4,1.8-3.4c0.8-0.9,1.8-1.7,3-2.2c1.2-0.5,2.6-0.8,4.2-0.8
		c1.7,0,3.2,0.3,4.4,0.8c1.2,0.5,2.1,1.2,2.8,2.1c0.7,0.9,1.2,1.8,1.5,2.9c0.3,1,0.4,2.1,0.4,3.1l-4.6,1.2c0-1.8-0.4-3.2-1.1-4.2
		c-0.7-1-2-1.5-3.8-1.5c-1,0-1.8,0.2-2.4,0.6c-0.6,0.4-1.1,0.9-1.4,1.5c-0.3,0.6-0.6,1.3-0.7,2c-0.1,0.7-0.2,1.4-0.2,2.1
		c0,0.8,0,1.6,0.1,2.2c0.1,0.6,0.4,1.2,0.8,1.8c0.4,0.6,1.1,1.1,1.9,1.7c0.8,0.5,2,1.1,3.5,1.7c1.7,0.7,3.1,1.4,4.2,2.2
		c1,0.8,1.8,1.6,2.4,2.5c0.5,0.9,0.9,2,1,3.1C44.7,119.3,44.8,120.6,44.8,122.1z"/>
	<path fill="#FFFFFF" d="M58.2,97v36.1h-4.6V97h-6.8v-4.2h18.2V97H58.2z"/>
	<path fill="#FFFFFF" d="M80.7,133.1l-1.9-9h-9l-1.8,9h-4.4l8.6-40.3h4.3l8.7,40.3H80.7z M74.2,101.1l-1.7,9.4l-1.9,9.4H78l-2-9.6
		l-1.6-9.3H74.2z"/>
	<path fill="#FFFFFF" d="M94.5,109.5l5.2-16.7h4.8l-7.9,23.3v17.1h-4.6v-17.1l-7.9-23.3H89l3,9.4l2.3,7.2H94.5z"/>
	<path fill="#FFFFFF" d="M137.8,122.3c0,3.6-0.7,6.4-2.1,8.3c-1.4,2-3.8,2.9-7.2,2.9c-3.3,0-5.7-0.9-7.1-2.7
		c-1.4-1.8-2.1-4.2-2.1-7.2v-19.9c0-1.4,0.1-2.8,0.4-4.2c0.3-1.4,0.7-2.6,1.4-3.6c0.7-1.1,1.6-1.9,2.8-2.5c1.2-0.6,2.8-1,4.7-1
		c2,0,3.6,0.3,4.8,0.8s2.2,1.3,2.8,2.3c0.7,1,1.1,2.2,1.3,3.5c0.2,1.4,0.3,2.8,0.3,4.5V122.3z M133.2,102.9c0-0.7,0-1.4-0.1-2.1
		c-0.1-0.7-0.3-1.4-0.6-2c-0.3-0.6-0.8-1.1-1.4-1.5c-0.6-0.4-1.5-0.6-2.5-0.6c-1.2,0-2,0.3-2.7,0.8c-0.6,0.6-1.1,1.2-1.4,2
		c-0.3,0.8-0.5,1.6-0.6,2.5c-0.1,0.9-0.1,1.6-0.1,2.2v19.5c0,0.6,0.1,1.2,0.2,1.8c0.1,0.7,0.3,1.3,0.7,1.8c0.3,0.6,0.8,1,1.4,1.4
		c0.6,0.4,1.4,0.5,2.3,0.5c1,0,1.8-0.2,2.4-0.6c0.6-0.4,1.1-0.9,1.4-1.5c0.3-0.6,0.6-1.3,0.7-2c0.1-0.8,0.2-1.6,0.2-2.4V102.9z"/>
	<path fill="#FFFFFF" d="M148,105.5v27.6h-4.6V92.8h4.3l8.3,20.4l2.8,7.4l0.2-0.1V92.8h4.6v40.3h-4.3l-8.3-20.3l-2.9-7.3H148z"/>
	<path fill="#FFFFFF" d="M194.7,111.9c1.8,0.5,3,1.6,3.6,3.3c0.6,1.6,1,3.6,1,6c0,4.2-0.9,7.2-2.6,9.1c-1.7,1.9-4.4,2.8-8,2.8h-7.8
		V92.8h8.5c3.5,0,5.9,0.9,7.4,2.8c1.4,1.9,2.1,4.5,2.1,7.9c0,2.1-0.3,3.8-0.9,5.1c-0.6,1.3-1.7,2.3-3.3,3.2V111.9z M194.6,103.4
		c0-2.1-0.5-3.7-1.4-4.8c-0.9-1.1-2.4-1.6-4.5-1.6h-3.1v12.9h3.1c2.1,0,3.6-0.6,4.6-1.7C194.1,107.1,194.6,105.5,194.6,103.4z
		 M194.9,120.7c0-2.2-0.4-3.9-1.2-5.1c-0.8-1.2-2.4-1.8-4.8-1.8h-3.4V129h3.6c1.3,0,2.3-0.2,3-0.7c0.8-0.4,1.3-1,1.7-1.8
		c0.4-0.8,0.7-1.6,0.8-2.6S194.9,121.9,194.9,120.7z"/>
	<path fill="#FFFFFF" d="M223.3,92.8v29.4c0,3.6-0.7,6.4-2.1,8.3c-1.4,2-3.8,2.9-7.2,2.9c-3.3,0-5.7-0.9-7.1-2.7
		c-1.4-1.8-2.1-4.2-2.1-7.2V92.8h4.6v30.8c0,0.6,0.1,1.2,0.2,1.9c0.1,0.7,0.3,1.3,0.7,1.9s0.8,1,1.4,1.4c0.6,0.4,1.4,0.5,2.3,0.5
		c1,0,1.8-0.2,2.4-0.6c0.6-0.4,1.1-0.9,1.4-1.5c0.3-0.6,0.6-1.3,0.7-2.1c0.1-0.8,0.2-1.6,0.2-2.4V92.8H223.3z"/>
	<path fill="#FFFFFF" d="M238.6,92.8c2.4,0,4.3,0.4,5.7,1.2c1.4,0.8,2.3,2.2,2.9,4.2c0.4,1.6,0.6,3.6,0.6,6c0,2.4,0,5.3,0,8.6
		c0,3.3,0,6.1,0,8.4s-0.3,4.2-0.8,5.8c-0.7,2.3-1.9,3.8-3.5,4.7c-1.6,0.8-3.4,1.3-5.5,1.3h-8.8V92.8H238.6z M243.2,102.8
		c0-1.8-0.4-3.2-1.2-4.3c-0.8-1-2.1-1.6-4.1-1.6h-4.1v31.9h4.1c1.9,0,3.2-0.5,4.1-1.6c0.8-1,1.2-2.5,1.2-4.5V102.8z"/>
	<path fill="#FFFFFF" d="M262.7,133.5c-3,0-5.3-0.8-6.8-2.5c-1.5-1.7-2.3-4.1-2.3-7.2v-19.9c0-1.4,0.1-2.8,0.4-4.2s0.7-2.6,1.4-3.6
		c0.7-1.1,1.6-1.9,2.8-2.6c1.2-0.7,2.7-1,4.6-1c3.1,0,5.4,0.8,6.7,2.4c1.4,1.6,2.1,3.8,2.2,6.5l-4.6,1.1c0-1.8-0.3-3.2-1-4.2
		c-0.7-1-1.8-1.6-3.4-1.6c-0.9,0-1.7,0.2-2.3,0.6s-1,1-1.4,1.6c-0.3,0.6-0.5,1.3-0.7,2.1c-0.1,0.8-0.2,1.5-0.2,2.2v20.3
		c0,0.6,0.1,1.2,0.2,1.9c0.1,0.7,0.3,1.3,0.7,1.9c0.3,0.6,0.8,1,1.3,1.4c0.6,0.4,1.3,0.6,2.2,0.6h0.1c1.5,0,2.6-0.4,3.5-1.2
		c0.8-0.8,1.3-1.8,1.3-3.2v-9.6h-4.7v-4h9.3v13c0,1.5-0.2,2.8-0.7,4c-0.5,1.1-1.1,2.1-2,2.9c-0.8,0.8-1.8,1.4-3,1.7
		S263.9,133.5,262.7,133.5z"/>
	<path fill="#FFFFFF" d="M277.7,133.1V92.8H295V97h-12.7v13.5h11v4.2h-11v14.1H295v4.2H277.7z"/>
	<path fill="#FFFFFF" d="M307.4,97v36.1h-4.6V97H296v-4.2h18.2V97H307.4z"/>
</g>
</svg>
